<svg xmlns="http://www.w3.org/2000/svg" width="1024" height="1024" viewBox="0 0 1024 1024" version="1.1"><path d="M 481 31.098 C 410.984 35.294, 340.533 55.884, 278 90.427 C 263.851 98.242, 232.238 119.167, 218.595 129.746 C 185.156 155.676, 154.349 186.654, 128.344 220.500 C 41.006 334.172, 9.306 485.575, 43.545 625.500 C 72.586 744.176, 143.208 844.711, 246 913.708 C 356.284 987.732, 495.146 1012.134, 625.666 980.423 C 712.081 959.429, 788.663 916.246, 852.533 852.500 C 911.010 794.135, 952.176 724.668, 975.067 645.720 C 1004.459 544.350, 999.360 434.481, 960.692 336 C 936.066 273.280, 900.605 219.443, 852.012 171 C 813.802 132.908, 774.053 104.169, 727 80.616 C 651.226 42.686, 567.813 25.896, 481 31.098 M 570.250 137.188 L 568 139.629 568 402.735 L 568 665.841 570.750 666.424 C 585.745 669.600, 623.530 669.605, 638.250 666.434 L 641 665.841 641 540.542 L 641 415.242 647.762 408.871 C 672.653 385.418, 704.709 371.035, 732.145 371.009 C 758.465 370.984, 769.927 382.293, 774.530 412.824 C 775.734 420.813, 775.991 440.201, 776.002 524 C 776.015 626.018, 776.351 637.349, 779.673 647.910 C 784.879 664.463, 799.263 672.093, 822.500 670.631 C 827.450 670.319, 833.975 669.331, 837 668.435 C 842.748 666.731, 855.791 660.289, 859.878 657.134 L 862.256 655.298 859.716 648.899 C 856.810 641.580, 855.404 636.612, 853.232 626 C 851.937 619.667, 851.590 601.696, 851.004 510.500 C 850.409 417.823, 850.080 401.081, 848.683 392.500 C 844.123 364.473, 834.088 342.131, 819.514 327.558 C 802.371 310.415, 779.526 302.956, 748.193 304.272 C 731.893 304.956, 720.448 307.069, 705.500 312.154 C 685.865 318.833, 664.923 330.826, 648.303 344.909 L 641.106 351.008 640.738 259.254 C 640.409 177.217, 640.192 166.835, 638.689 161.219 C 636.575 153.317, 633.977 148.232, 630.342 144.879 C 622.345 137.505, 616.731 136.110, 592 135.348 L 572.500 134.747 570.250 137.188 M 322.658 165.569 C 271.338 173.552, 227.020 203.612, 198.759 249.607 C 167.495 300.490, 153.051 371.022, 158.026 448.517 C 162.980 525.694, 184.501 586.986, 219.611 623.911 C 240.364 645.738, 265.558 660.836, 293.870 668.412 C 311.788 673.207, 323.462 674.467, 350 674.468 C 371.190 674.469, 376.230 674.159, 387.310 672.169 C 413.619 667.445, 434.004 660.575, 460.500 647.503 C 481.577 637.105, 495.499 628.416, 510.500 616.296 C 525.067 604.527, 525.482 604.005, 523.965 599.326 C 520.463 588.521, 511.766 574.952, 502.838 566.366 C 497.182 560.926, 488.359 554, 487.086 554 C 486.668 554, 482.573 556.957, 477.986 560.570 C 443.854 587.462, 407.864 603.819, 375.591 607.106 C 338.122 610.922, 306.661 600.957, 283.974 578.087 C 253.324 547.188, 237.989 493.972, 238.004 418.550 C 238.015 359.915, 245.730 318.159, 262.954 283.500 C 274.739 259.786, 288.121 245.491, 307.500 235.915 C 321.235 229.128, 330.326 226.941, 347.554 226.278 C 375.689 225.196, 397.354 231.719, 416.291 246.975 C 437.872 264.362, 449.890 291.390, 452.964 329.455 C 453.539 336.580, 454.346 342.746, 454.756 343.156 C 455.729 344.129, 471.551 346.890, 480.500 347.648 C 484.350 347.974, 490.875 347.717, 495 347.076 C 520.504 343.113, 530.973 326.318, 528.011 294.120 C 523.566 245.800, 493.831 206.807, 443.500 183.294 C 413.521 169.289, 387.466 163.909, 350.530 164.097 C 339.862 164.151, 327.615 164.798, 322.658 165.569 M 324 766 L 324 813 333.945 813 L 343.890 813 344.195 791.421 L 344.500 769.842 348.235 766.421 C 351.420 763.504, 352.689 763, 356.850 763 C 360.342 763, 362.514 763.617, 364.486 765.168 C 369.394 769.028, 370 772.141, 370 793.468 L 370 813 380 813 L 390 813 390 792.210 C 390 769.612, 388.977 762.804, 384.619 756.390 C 377.328 745.660, 361.444 742.061, 348.859 748.289 L 344 750.694 344 734.847 L 344 719 334 719 L 324 719 324 766 M 281.270 725.086 C 267.759 729.367, 256.249 740.772, 252.301 753.791 C 249.730 762.266, 250.046 775.813, 252.994 783.500 C 260.662 803.497, 276.432 812.937, 302.250 812.983 L 312 813 312 804 L 312 795 303.682 795 C 292.705 795, 285.953 792.920, 280.442 787.840 C 266.178 774.691, 270.915 748.791, 288.748 742.427 C 290.862 741.672, 296.756 741.069, 302.250 741.044 L 312 741 312 732 L 312 723 299.750 723.056 C 290.445 723.099, 286.002 723.587, 281.270 725.086 M 474.929 746.367 C 468.595 748.075, 462.025 752.123, 457.554 757.072 C 447.141 768.598, 446.133 786.612, 455.165 799.740 C 463.982 812.555, 482.804 817.853, 498.500 811.937 C 506.773 808.818, 515.934 799.702, 518.535 792 C 520.806 785.271, 520.853 774.237, 518.634 768.201 C 512.393 751.222, 492.951 741.508, 474.929 746.367 M 556.746 746.020 C 550.338 747.642, 543.379 751.739, 539.666 756.077 C 533.659 763.095, 533 766.563, 533 791.178 L 533 813 543 813 L 553 813 553 792.450 C 553 776.038, 553.305 771.310, 554.517 768.967 C 558.472 761.320, 571.487 760.990, 576.352 768.414 C 577.751 770.549, 578 774.109, 578 791.965 L 578 813 588.609 813 L 599.217 813 598.832 790.750 C 598.462 769.400, 598.343 768.277, 595.890 762.994 C 590.746 751.913, 581.862 746.272, 568.360 745.512 C 564.037 745.269, 558.811 745.498, 556.746 746.020 M 414.401 748.905 C 405.396 752.995, 404.014 758.557, 404.006 790.750 L 404 813 414.500 813 L 425 813 425 789.200 C 425 772.022, 425.334 765.066, 426.200 764.200 C 426.928 763.472, 430.467 763, 435.200 763 L 443 763 443 755 L 443 747 430.750 747.022 C 420.972 747.039, 417.673 747.420, 414.401 748.905 M 613.183 769.355 C 613.614 791.243, 613.680 791.825, 616.352 797.286 C 621.004 806.796, 629.373 812.520, 640.599 813.872 C 653.930 815.477, 665.567 811.829, 672.334 803.923 C 678.341 796.905, 679 793.437, 679 768.822 L 679 747 669 747 L 659 747 659 768.015 L 659 789.029 655.716 792.613 C 651.405 797.317, 644.914 798.346, 639.738 795.147 C 634.375 791.833, 634 790.021, 634 767.453 L 634 747 623.371 747 L 612.742 747 613.183 769.355 M 705.030 748.113 C 696.918 751.350, 692.059 758.755, 692.022 767.934 C 691.991 775.638, 694.956 781.304, 700.815 784.738 C 704.859 787.107, 706.696 787.487, 715.469 787.766 C 720.986 787.942, 726.483 788.293, 727.683 788.545 C 730.357 789.108, 731.489 792.217, 730.020 794.962 C 728.987 796.893, 728.014 797, 711.465 797 L 694 797 694 805 L 694 813 713.804 813 C 733.216 813, 733.712 812.948, 738.919 810.353 C 748.003 805.826, 752.604 795.672, 749.983 785.938 C 747.097 775.220, 741.384 771.779, 725.500 771.193 C 719.450 770.970, 713.915 770.311, 713.199 769.729 C 712.484 769.147, 712.034 767.508, 712.199 766.086 L 712.500 763.500 728.500 763 L 744.500 762.500 744.792 754.750 L 745.084 747 726.292 747.063 C 715.956 747.098, 706.388 747.570, 705.030 748.113 M 476.605 764.922 C 469.566 769.562, 467.092 780.083, 471.179 787.992 C 474.522 794.462, 479.159 797.286, 485.592 796.770 C 494.860 796.027, 500.001 789.988, 499.998 779.849 C 499.995 769.494, 494.054 762.994, 484.602 763.007 C 481.269 763.011, 478.497 763.675, 476.605 764.922 M 283.312 827.967 C 271.844 833.762, 266.539 842.458, 266.515 855.500 C 266.497 865.157, 268.790 870.623, 275.727 877.463 C 290.044 891.578, 314.390 887.561, 323.900 869.515 C 325.055 867.323, 325.982 864.848, 325.961 864.015 C 325.939 863.182, 325.306 863.915, 324.553 865.645 C 322.357 870.694, 315.899 877.128, 310.500 879.647 C 304.742 882.334, 296.730 882.750, 291.645 880.625 C 286.893 878.639, 281.205 873.320, 278.783 868.595 C 276.240 863.634, 275.291 852.301, 276.916 846.292 C 279.246 837.678, 287.646 829.911, 296.194 828.467 C 305.308 826.927, 316.737 833.640, 321.397 843.271 L 323.927 848.500 323.962 841.500 L 323.998 834.500 315.749 830.040 C 308.025 825.864, 306.927 825.557, 298.500 825.210 C 290.037 824.862, 289.131 825.026, 283.312 827.967 M 411.718 826.919 C 405.041 830.341, 401.872 836.371, 403.449 842.652 C 404.403 846.455, 409.750 851.390, 415 853.312 C 417.475 854.219, 422.200 855.941, 425.500 857.140 C 433.533 860.058, 438.001 864.531, 437.996 869.650 C 437.991 875.238, 435.021 879.445, 429.627 881.505 C 417.241 886.235, 403.237 876.511, 402.885 862.934 L 402.770 858.500 401.943 862.500 C 401.488 864.700, 401.090 868.975, 401.059 872 C 401.005 877.407, 401.076 877.545, 405.252 880.164 C 412.065 884.436, 419.218 886.337, 426.333 885.765 C 436.309 884.965, 443.222 880.499, 446.452 872.768 C 448.518 867.825, 448.403 864.710, 445.980 859.961 C 443.357 854.819, 438.541 851.728, 426.391 847.387 C 414.193 843.029, 412.809 841.895, 413.202 836.584 C 413.600 831.216, 418.087 828, 425.180 828 C 433.777 828, 439.810 831.979, 441.858 839 C 442.807 842.252, 442.865 842.079, 442.689 836.554 L 442.500 830.609 437.531 828.054 C 430.768 824.578, 417.429 823.991, 411.718 826.919 M 497.328 826.938 C 493.007 828.900, 490.307 832.041, 489.966 835.500 C 489.466 840.590, 490.199 842.491, 494.025 846.024 L 498.051 849.740 495.275 850.297 C 487.916 851.776, 482 859.119, 482 866.774 C 482 876.218, 488.732 883.172, 499.752 885.113 C 510.080 886.932, 520.590 882.560, 524.619 874.769 C 527.916 868.395, 525.838 858.857, 520.535 856.019 L 517.900 854.608 520.425 853.285 C 523.466 851.692, 525 849.064, 525 845.449 C 525 843.155, 524.674 842.854, 522.750 843.370 C 521.513 843.701, 520.163 843.979, 519.750 843.986 C 519.337 843.994, 519 845.344, 519 846.987 C 519 849.679, 518.318 850.318, 512.104 853.448 C 503.859 857.600, 501 860.846, 501 866.053 C 501 871.843, 501.777 873, 505.664 873 C 509.029 873, 509.075 872.946, 507.557 870.777 C 503.533 865.032, 507.521 857, 514.399 857 C 522.450 857, 526.744 866.759, 521.838 873.908 C 518.372 878.960, 514.733 881.223, 509.224 881.753 C 502.744 882.375, 495.833 879.416, 493.030 874.818 C 487.810 866.256, 493.844 851, 502.450 851 C 504.455 851, 504.445 848.614, 502.434 846.945 C 497.363 842.737, 496.652 835.194, 500.923 830.923 C 505.034 826.812, 508.423 827.072, 510.850 831.684 C 512.615 835.037, 512.237 837.564, 509.481 840.840 L 506.963 843.833 510.178 844.539 C 512.896 845.136, 513.748 844.831, 515.696 842.567 C 518.485 839.324, 518.740 833.473, 516.228 830.358 C 511.950 825.055, 504.460 823.700, 497.328 826.938 M 334.799 849.731 C 334.964 862.832, 334.694 876.127, 334.200 879.276 L 333.303 885 338.181 885 L 343.060 885 340.780 881.919 C 338.589 878.959, 338.490 877.970, 338.239 856.669 L 337.978 834.500 348.237 854.287 C 356.474 870.172, 358.864 874.017, 360.356 873.787 C 361.656 873.586, 365.349 867.477, 372.619 853.500 L 383.021 833.500 382.761 859.251 L 382.500 885.002 388 885.001 L 393.500 885 393.500 855.500 L 393.500 826 388.328 826 L 383.155 826 374.018 843.750 C 368.992 853.513, 364.513 861.871, 364.065 862.325 C 363.617 862.779, 358.983 854.904, 353.767 844.825 L 344.285 826.500 339.392 826.205 L 334.500 825.911 334.799 849.731 M 561.500 855.503 L 561.500 885.167 577.026 884.833 C 592.221 884.507, 592.693 884.431, 599.163 881.243 C 608.990 876.401, 613.985 868.943, 614.773 857.933 C 615.691 845.097, 610.627 835.433, 599.859 829.468 C 594.618 826.565, 594.138 826.493, 578 826.170 L 561.500 825.839 561.500 855.503 M 708.500 855.545 L 708.500 885.091 712 884.795 C 715.391 884.509, 715.521 884.345, 716.162 879.500 C 716.527 876.750, 716.864 870.168, 716.912 864.873 L 717 855.246 721.935 853.123 C 727.847 850.580, 733.239 850.378, 735.107 852.629 C 736.826 854.700, 737.565 872.482, 736.234 879.750 L 735.273 885 740.567 885 L 745.860 885 744.930 881.757 C 744.419 879.973, 744 872.573, 744 865.312 C 744 852.796, 743.875 851.966, 741.585 849.306 C 739.469 846.848, 738.508 846.513, 733.835 846.608 C 729.190 846.702, 726.036 847.718, 717.693 851.809 C 717.249 852.027, 717.024 846.308, 717.193 839.101 L 717.500 825.996 713 825.998 L 708.500 826 708.500 855.545 M 571 855.406 L 571 882 578.250 881.994 C 587.511 881.987, 592.174 880.664, 596.586 876.790 C 609.332 865.599, 608.126 841.264, 594.367 832 C 591.157 829.839, 589.321 829.453, 580.827 829.156 L 571 828.813 571 855.406 M 630.148 847.077 C 621.500 848.199, 621.663 848.051, 624.571 852.138 L 627.156 855.770 633.651 852.385 C 641.512 848.288, 646.273 847.961, 648.504 851.365 C 652.138 856.912, 645.201 862.753, 636.522 861.451 C 625.894 859.857, 618.659 869.638, 623.517 879.033 C 628.066 887.829, 641.609 886.345, 647.635 876.390 L 649.990 872.500 649.995 877.168 C 650.002 884.020, 650.629 885, 655.002 885 L 658.789 885 657.919 881.250 C 657.440 879.188, 657.037 871.824, 657.024 864.886 C 657.001 852.761, 656.903 852.175, 654.486 849.759 C 650.651 845.923, 644.377 845.232, 630.148 847.077 M 673.757 847.201 C 670.001 848.199, 665 852.955, 665 855.530 C 665 858.331, 667.432 862.104, 670.422 863.938 C 672.115 864.977, 677.608 867.467, 682.629 869.470 C 687.649 871.474, 692.824 874.251, 694.129 875.641 L 696.500 878.170 694.011 880.189 C 689.861 883.555, 681.182 882.129, 672.990 876.737 C 670.531 875.118, 670.432 875.155, 668.096 878.565 C 666.785 880.479, 665.948 882.281, 666.237 882.570 C 667.392 883.725, 680.727 885.187, 686.664 884.809 C 693.607 884.367, 697.574 882.209, 699.805 877.660 C 702.575 872.012, 697.659 867.286, 683.423 861.913 C 674.877 858.688, 669.520 854.951, 670.253 852.727 C 671.787 848.076, 682.630 848.228, 690.320 853.008 C 694.964 855.895, 695.311 855.965, 696.634 854.281 C 698.645 851.722, 700.216 848.882, 699.831 848.501 C 699.237 847.912, 683.938 845.997, 680.678 846.103 C 678.930 846.160, 675.815 846.654, 673.757 847.201 M 646.048 862.949 C 645.249 863.455, 642.364 864.175, 639.636 864.550 C 633.374 865.411, 630 868.504, 630 873.382 C 630 877.139, 633.598 881, 637.100 881 C 640.193 881, 645.724 875.260, 647.416 870.292 C 649.900 863.001, 649.485 860.775, 646.048 862.949" stroke="none" fill="#041c34" fill-rule="evenodd"/><path d="M 473 1.093 C 407.746 6.158, 345.556 23.152, 286.568 52.037 C 213.898 87.622, 150.587 140.156, 101.810 205.346 C 42.240 284.963, 7.947 377.474, 0.927 477.500 C -0.543 498.440, 0.251 546.006, 2.387 565 C 14.237 670.369, 52.808 760.850, 120.752 842.661 C 133.627 858.164, 164.231 888.881, 180.049 902.178 C 229.563 943.798, 285.020 975.520, 343.220 995.514 C 363.375 1002.438, 382.939 1008.073, 398.500 1011.437 C 405.100 1012.863, 412.300 1014.445, 414.500 1014.953 C 421.348 1016.532, 442.830 1019.813, 458.500 1021.673 C 470.485 1023.095, 481.239 1023.448, 512 1023.427 C 545.686 1023.404, 552.811 1023.119, 568.981 1021.149 C 612.334 1015.868, 649.846 1007.071, 687 993.472 C 767.721 963.926, 839.844 914.712, 895.795 851 C 960.728 777.060, 1001.691 690.992, 1017.500 595.284 C 1020.255 578.609, 1023 553.802, 1023 545.587 C 1023 542.579, 1023.450 539.840, 1024 539.500 C 1024.628 539.112, 1025 528.490, 1025 510.941 C 1025 492.980, 1024.643 483, 1024 483 C 1023.450 483, 1023 480.737, 1023 477.972 C 1023 475.206, 1022.313 466.318, 1021.474 458.222 C 1010.168 349.141, 963.530 246.282, 888.296 164.500 C 815.481 85.348, 718.503 30.855, 612.500 9.526 C 596.199 6.246, 575.318 3.373, 554 1.477 C 536.233 -0.103, 491.161 -0.316, 473 1.093 M 481 31.098 C 410.984 35.294, 340.533 55.884, 278 90.427 C 263.851 98.242, 232.238 119.167, 218.595 129.746 C 185.156 155.676, 154.349 186.654, 128.344 220.500 C 41.006 334.172, 9.306 485.575, 43.545 625.500 C 72.586 744.176, 143.208 844.711, 246 913.708 C 356.284 987.732, 495.146 1012.134, 625.666 980.423 C 712.081 959.429, 788.663 916.246, 852.533 852.500 C 911.010 794.135, 952.176 724.668, 975.067 645.720 C 1004.459 544.350, 999.360 434.481, 960.692 336 C 936.066 273.280, 900.605 219.443, 852.012 171 C 813.802 132.908, 774.053 104.169, 727 80.616 C 651.226 42.686, 567.813 25.896, 481 31.098 M 570.250 137.188 L 568 139.629 568 402.735 L 568 665.841 570.750 666.424 C 585.745 669.600, 623.530 669.605, 638.250 666.434 L 641 665.841 641 540.542 L 641 415.242 647.762 408.871 C 672.653 385.418, 704.709 371.035, 732.145 371.009 C 758.465 370.984, 769.927 382.293, 774.530 412.824 C 775.734 420.813, 775.991 440.201, 776.002 524 C 776.015 626.018, 776.351 637.349, 779.673 647.910 C 784.879 664.463, 799.263 672.093, 822.500 670.631 C 827.450 670.319, 833.975 669.331, 837 668.435 C 842.748 666.731, 855.791 660.289, 859.878 657.134 L 862.256 655.298 859.716 648.899 C 856.810 641.580, 855.404 636.612, 853.232 626 C 851.937 619.667, 851.590 601.696, 851.004 510.500 C 850.409 417.823, 850.080 401.081, 848.683 392.500 C 844.123 364.473, 834.088 342.131, 819.514 327.558 C 802.371 310.415, 779.526 302.956, 748.193 304.272 C 731.893 304.956, 720.448 307.069, 705.500 312.154 C 685.865 318.833, 664.923 330.826, 648.303 344.909 L 641.106 351.008 640.738 259.254 C 640.409 177.217, 640.192 166.835, 638.689 161.219 C 636.575 153.317, 633.977 148.232, 630.342 144.879 C 622.345 137.505, 616.731 136.110, 592 135.348 L 572.500 134.747 570.250 137.188 M 322.658 165.569 C 271.338 173.552, 227.020 203.612, 198.759 249.607 C 167.495 300.490, 153.051 371.022, 158.026 448.517 C 162.980 525.694, 184.501 586.986, 219.611 623.911 C 240.364 645.738, 265.558 660.836, 293.870 668.412 C 311.788 673.207, 323.462 674.467, 350 674.468 C 371.190 674.469, 376.230 674.159, 387.310 672.169 C 413.619 667.445, 434.004 660.575, 460.500 647.503 C 481.577 637.105, 495.499 628.416, 510.500 616.296 C 525.067 604.527, 525.482 604.005, 523.965 599.326 C 520.463 588.521, 511.766 574.952, 502.838 566.366 C 497.182 560.926, 488.359 554, 487.086 554 C 486.668 554, 482.573 556.957, 477.986 560.570 C 443.854 587.462, 407.864 603.819, 375.591 607.106 C 338.122 610.922, 306.661 600.957, 283.974 578.087 C 253.324 547.188, 237.989 493.972, 238.004 418.550 C 238.015 359.915, 245.730 318.159, 262.954 283.500 C 274.739 259.786, 288.121 245.491, 307.500 235.915 C 321.235 229.128, 330.326 226.941, 347.554 226.278 C 375.689 225.196, 397.354 231.719, 416.291 246.975 C 437.872 264.362, 449.890 291.390, 452.964 329.455 C 453.539 336.580, 454.346 342.746, 454.756 343.156 C 455.729 344.129, 471.551 346.890, 480.500 347.648 C 484.350 347.974, 490.875 347.717, 495 347.076 C 520.504 343.113, 530.973 326.318, 528.011 294.120 C 523.566 245.800, 493.831 206.807, 443.500 183.294 C 413.521 169.289, 387.466 163.909, 350.530 164.097 C 339.862 164.151, 327.615 164.798, 322.658 165.569 M 0.441 512 C 0.441 527.675, 0.579 534.087, 0.748 526.250 C 0.917 518.412, 0.917 505.587, 0.748 497.750 C 0.579 489.912, 0.441 496.325, 0.441 512 M 324 766 L 324 813 333.945 813 L 343.890 813 344.195 791.421 L 344.500 769.842 348.235 766.421 C 351.420 763.504, 352.689 763, 356.850 763 C 360.342 763, 362.514 763.617, 364.486 765.168 C 369.394 769.028, 370 772.141, 370 793.468 L 370 813 380 813 L 390 813 390 792.210 C 390 769.612, 388.977 762.804, 384.619 756.390 C 377.328 745.660, 361.444 742.061, 348.859 748.289 L 344 750.694 344 734.847 L 344 719 334 719 L 324 719 324 766 M 281.270 725.086 C 267.759 729.367, 256.249 740.772, 252.301 753.791 C 249.730 762.266, 250.046 775.813, 252.994 783.500 C 260.662 803.497, 276.432 812.937, 302.250 812.983 L 312 813 312 804 L 312 795 303.682 795 C 292.705 795, 285.953 792.920, 280.442 787.840 C 266.178 774.691, 270.915 748.791, 288.748 742.427 C 290.862 741.672, 296.756 741.069, 302.250 741.044 L 312 741 312 732 L 312 723 299.750 723.056 C 290.445 723.099, 286.002 723.587, 281.270 725.086 M 474.929 746.367 C 468.595 748.075, 462.025 752.123, 457.554 757.072 C 447.141 768.598, 446.133 786.612, 455.165 799.740 C 463.982 812.555, 482.804 817.853, 498.500 811.937 C 506.773 808.818, 515.934 799.702, 518.535 792 C 520.806 785.271, 520.853 774.237, 518.634 768.201 C 512.393 751.222, 492.951 741.508, 474.929 746.367 M 556.746 746.020 C 550.338 747.642, 543.379 751.739, 539.666 756.077 C 533.659 763.095, 533 766.563, 533 791.178 L 533 813 543 813 L 553 813 553 792.450 C 553 776.038, 553.305 771.310, 554.517 768.967 C 558.472 761.320, 571.487 760.990, 576.352 768.414 C 577.751 770.549, 578 774.109, 578 791.965 L 578 813 588.609 813 L 599.217 813 598.832 790.750 C 598.462 769.400, 598.343 768.277, 595.890 762.994 C 590.746 751.913, 581.862 746.272, 568.360 745.512 C 564.037 745.269, 558.811 745.498, 556.746 746.020 M 414.401 748.905 C 405.396 752.995, 404.014 758.557, 404.006 790.750 L 404 813 414.500 813 L 425 813 425 789.200 C 425 772.022, 425.334 765.066, 426.200 764.200 C 426.928 763.472, 430.467 763, 435.200 763 L 443 763 443 755 L 443 747 430.750 747.022 C 420.972 747.039, 417.673 747.420, 414.401 748.905 M 613.183 769.355 C 613.614 791.243, 613.680 791.825, 616.352 797.286 C 621.004 806.796, 629.373 812.520, 640.599 813.872 C 653.930 815.477, 665.567 811.829, 672.334 803.923 C 678.341 796.905, 679 793.437, 679 768.822 L 679 747 669 747 L 659 747 659 768.015 L 659 789.029 655.716 792.613 C 651.405 797.317, 644.914 798.346, 639.738 795.147 C 634.375 791.833, 634 790.021, 634 767.453 L 634 747 623.371 747 L 612.742 747 613.183 769.355 M 705.030 748.113 C 696.918 751.350, 692.059 758.755, 692.022 767.934 C 691.991 775.638, 694.956 781.304, 700.815 784.738 C 704.859 787.107, 706.696 787.487, 715.469 787.766 C 720.986 787.942, 726.483 788.293, 727.683 788.545 C 730.357 789.108, 731.489 792.217, 730.020 794.962 C 728.987 796.893, 728.014 797, 711.465 797 L 694 797 694 805 L 694 813 713.804 813 C 733.216 813, 733.712 812.948, 738.919 810.353 C 748.003 805.826, 752.604 795.672, 749.983 785.938 C 747.097 775.220, 741.384 771.779, 725.500 771.193 C 719.450 770.970, 713.915 770.311, 713.199 769.729 C 712.484 769.147, 712.034 767.508, 712.199 766.086 L 712.500 763.500 728.500 763 L 744.500 762.500 744.792 754.750 L 745.084 747 726.292 747.063 C 715.956 747.098, 706.388 747.570, 705.030 748.113 M 476.605 764.922 C 469.566 769.562, 467.092 780.083, 471.179 787.992 C 474.522 794.462, 479.159 797.286, 485.592 796.770 C 494.860 796.027, 500.001 789.988, 499.998 779.849 C 499.995 769.494, 494.054 762.994, 484.602 763.007 C 481.269 763.011, 478.497 763.675, 476.605 764.922 M 283.312 827.967 C 271.844 833.762, 266.539 842.458, 266.515 855.500 C 266.497 865.157, 268.790 870.623, 275.727 877.463 C 290.044 891.578, 314.390 887.561, 323.900 869.515 C 325.055 867.323, 325.982 864.848, 325.961 864.015 C 325.939 863.182, 325.306 863.915, 324.553 865.645 C 322.357 870.694, 315.899 877.128, 310.500 879.647 C 304.742 882.334, 296.730 882.750, 291.645 880.625 C 286.893 878.639, 281.205 873.320, 278.783 868.595 C 276.240 863.634, 275.291 852.301, 276.916 846.292 C 279.246 837.678, 287.646 829.911, 296.194 828.467 C 305.308 826.927, 316.737 833.640, 321.397 843.271 L 323.927 848.500 323.962 841.500 L 323.998 834.500 315.749 830.040 C 308.025 825.864, 306.927 825.557, 298.500 825.210 C 290.037 824.862, 289.131 825.026, 283.312 827.967 M 411.718 826.919 C 405.041 830.341, 401.872 836.371, 403.449 842.652 C 404.403 846.455, 409.750 851.390, 415 853.312 C 417.475 854.219, 422.200 855.941, 425.500 857.140 C 433.533 860.058, 438.001 864.531, 437.996 869.650 C 437.991 875.238, 435.021 879.445, 429.627 881.505 C 417.241 886.235, 403.237 876.511, 402.885 862.934 L 402.770 858.500 401.943 862.500 C 401.488 864.700, 401.090 868.975, 401.059 872 C 401.005 877.407, 401.076 877.545, 405.252 880.164 C 412.065 884.436, 419.218 886.337, 426.333 885.765 C 436.309 884.965, 443.222 880.499, 446.452 872.768 C 448.518 867.825, 448.403 864.710, 445.980 859.961 C 443.357 854.819, 438.541 851.728, 426.391 847.387 C 414.193 843.029, 412.809 841.895, 413.202 836.584 C 413.600 831.216, 418.087 828, 425.180 828 C 433.777 828, 439.810 831.979, 441.858 839 C 442.807 842.252, 442.865 842.079, 442.689 836.554 L 442.500 830.609 437.531 828.054 C 430.768 824.578, 417.429 823.991, 411.718 826.919 M 497.328 826.938 C 493.007 828.900, 490.307 832.041, 489.966 835.500 C 489.466 840.590, 490.199 842.491, 494.025 846.024 L 498.051 849.740 495.275 850.297 C 487.916 851.776, 482 859.119, 482 866.774 C 482 876.218, 488.732 883.172, 499.752 885.113 C 510.080 886.932, 520.590 882.560, 524.619 874.769 C 527.916 868.395, 525.838 858.857, 520.535 856.019 L 517.900 854.608 520.425 853.285 C 523.466 851.692, 525 849.064, 525 845.449 C 525 843.155, 524.674 842.854, 522.750 843.370 C 521.513 843.701, 520.163 843.979, 519.750 843.986 C 519.337 843.994, 519 845.344, 519 846.987 C 519 849.679, 518.318 850.318, 512.104 853.448 C 503.859 857.600, 501 860.846, 501 866.053 C 501 871.843, 501.777 873, 505.664 873 C 509.029 873, 509.075 872.946, 507.557 870.777 C 503.533 865.032, 507.521 857, 514.399 857 C 522.450 857, 526.744 866.759, 521.838 873.908 C 518.372 878.960, 514.733 881.223, 509.224 881.753 C 502.744 882.375, 495.833 879.416, 493.030 874.818 C 487.810 866.256, 493.844 851, 502.450 851 C 504.455 851, 504.445 848.614, 502.434 846.945 C 497.363 842.737, 496.652 835.194, 500.923 830.923 C 505.034 826.812, 508.423 827.072, 510.850 831.684 C 512.615 835.037, 512.237 837.564, 509.481 840.840 L 506.963 843.833 510.178 844.539 C 512.896 845.136, 513.748 844.831, 515.696 842.567 C 518.485 839.324, 518.740 833.473, 516.228 830.358 C 511.950 825.055, 504.460 823.700, 497.328 826.938 M 334.799 849.731 C 334.964 862.832, 334.694 876.127, 334.200 879.276 L 333.303 885 338.181 885 L 343.060 885 340.780 881.919 C 338.589 878.959, 338.490 877.970, 338.239 856.669 L 337.978 834.500 348.237 854.287 C 356.474 870.172, 358.864 874.017, 360.356 873.787 C 361.656 873.586, 365.349 867.477, 372.619 853.500 L 383.021 833.500 382.761 859.251 L 382.500 885.002 388 885.001 L 393.500 885 393.500 855.500 L 393.500 826 388.328 826 L 383.155 826 374.018 843.750 C 368.992 853.513, 364.513 861.871, 364.065 862.325 C 363.617 862.779, 358.983 854.904, 353.767 844.825 L 344.285 826.500 339.392 826.205 L 334.500 825.911 334.799 849.731 M 561.500 855.503 L 561.500 885.167 577.026 884.833 C 592.221 884.507, 592.693 884.431, 599.163 881.243 C 608.990 876.401, 613.985 868.943, 614.773 857.933 C 615.691 845.097, 610.627 835.433, 599.859 829.468 C 594.618 826.565, 594.138 826.493, 578 826.170 L 561.500 825.839 561.500 855.503 M 708.500 855.545 L 708.500 885.091 712 884.795 C 715.391 884.509, 715.521 884.345, 716.162 879.500 C 716.527 876.750, 716.864 870.168, 716.912 864.873 L 717 855.246 721.935 853.123 C 727.847 850.580, 733.239 850.378, 735.107 852.629 C 736.826 854.700, 737.565 872.482, 736.234 879.750 L 735.273 885 740.567 885 L 745.860 885 744.930 881.757 C 744.419 879.973, 744 872.573, 744 865.312 C 744 852.796, 743.875 851.966, 741.585 849.306 C 739.469 846.848, 738.508 846.513, 733.835 846.608 C 729.190 846.702, 726.036 847.718, 717.693 851.809 C 717.249 852.027, 717.024 846.308, 717.193 839.101 L 717.500 825.996 713 825.998 L 708.500 826 708.500 855.545 M 571 855.406 L 571 882 578.250 881.994 C 587.511 881.987, 592.174 880.664, 596.586 876.790 C 609.332 865.599, 608.126 841.264, 594.367 832 C 591.157 829.839, 589.321 829.453, 580.827 829.156 L 571 828.813 571 855.406 M 630.148 847.077 C 621.500 848.199, 621.663 848.051, 624.571 852.138 L 627.156 855.770 633.651 852.385 C 641.512 848.288, 646.273 847.961, 648.504 851.365 C 652.138 856.912, 645.201 862.753, 636.522 861.451 C 625.894 859.857, 618.659 869.638, 623.517 879.033 C 628.066 887.829, 641.609 886.345, 647.635 876.390 L 649.990 872.500 649.995 877.168 C 650.002 884.020, 650.629 885, 655.002 885 L 658.789 885 657.919 881.250 C 657.440 879.188, 657.037 871.824, 657.024 864.886 C 657.001 852.761, 656.903 852.175, 654.486 849.759 C 650.651 845.923, 644.377 845.232, 630.148 847.077 M 673.757 847.201 C 670.001 848.199, 665 852.955, 665 855.530 C 665 858.331, 667.432 862.104, 670.422 863.938 C 672.115 864.977, 677.608 867.467, 682.629 869.470 C 687.649 871.474, 692.824 874.251, 694.129 875.641 L 696.500 878.170 694.011 880.189 C 689.861 883.555, 681.182 882.129, 672.990 876.737 C 670.531 875.118, 670.432 875.155, 668.096 878.565 C 666.785 880.479, 665.948 882.281, 666.237 882.570 C 667.392 883.725, 680.727 885.187, 686.664 884.809 C 693.607 884.367, 697.574 882.209, 699.805 877.660 C 702.575 872.012, 697.659 867.286, 683.423 861.913 C 674.877 858.688, 669.520 854.951, 670.253 852.727 C 671.787 848.076, 682.630 848.228, 690.320 853.008 C 694.964 855.895, 695.311 855.965, 696.634 854.281 C 698.645 851.722, 700.216 848.882, 699.831 848.501 C 699.237 847.912, 683.938 845.997, 680.678 846.103 C 678.930 846.160, 675.815 846.654, 673.757 847.201 M 646.048 862.949 C 645.249 863.455, 642.364 864.175, 639.636 864.550 C 633.374 865.411, 630 868.504, 630 873.382 C 630 877.139, 633.598 881, 637.100 881 C 640.193 881, 645.724 875.260, 647.416 870.292 C 649.900 863.001, 649.485 860.775, 646.048 862.949" stroke="none" fill="#f9944c" fill-rule="evenodd"/></svg>